<svg width="170" height="122" viewBox="0 0 170 122" fill="none" xmlns="http://www.w3.org/2000/svg">
<path d="M5.61804 80.5388V48.6624C5.61804 44.2613 9.18597 40.6933 13.5871 40.6933H35.0815C36.6549 40.6933 38.193 40.2276 39.502 39.3549L72.9195 17.0767C78.2157 13.5461 85.309 17.3424 85.309 23.7074V105.494C85.309 111.859 78.2157 115.655 72.9195 112.124L39.502 89.8459C38.193 88.9733 36.6549 88.5079 35.0815 88.5079H13.5871C9.18597 88.5079 5.61804 84.9401 5.61804 80.5388Z" stroke="white" stroke-width="9.34636"/>
<path d="M121.17 28.74C121.17 28.74 133.124 40.6936 133.124 60.6164C133.124 80.5391 121.17 92.4928 121.17 92.4928" stroke="white" stroke-width="9.34636" stroke-linecap="round" stroke-linejoin="round"/>
<path d="M145.077 4.83264C145.077 4.83264 165 24.7554 165 60.6163C165 96.4772 145.077 116.4 145.077 116.4" stroke="white" stroke-width="9.34636" stroke-linecap="round" stroke-linejoin="round"/>
</svg>
