<svg width="148" height="148" viewBox="0 0 148 148" fill="none" xmlns="http://www.w3.org/2000/svg">
<path d="M35.7971 5.45349H20.6253C12.2461 5.45349 5.45343 12.2462 5.45343 20.6253V35.7972" stroke="white" stroke-width="10.6211" stroke-linecap="round" stroke-linejoin="round"/>
<path d="M111.656 5.45349H126.828C135.208 5.45349 142 12.2462 142 20.6253V35.7972" stroke="white" stroke-width="10.6211" stroke-linecap="round" stroke-linejoin="round"/>
<path d="M104.07 43.3831V58.5549" stroke="white" stroke-width="10.6211" stroke-linecap="round" stroke-linejoin="round"/>
<path d="M43.3831 43.3831V58.5549" stroke="white" stroke-width="10.6211" stroke-linecap="round" stroke-linejoin="round"/>
<path d="M50.969 104.07C50.969 104.07 58.5549 111.656 73.7268 111.656C88.8986 111.656 96.4845 104.07 96.4845 104.07" stroke="white" stroke-width="10.6211" stroke-linecap="round" stroke-linejoin="round"/>
<path d="M73.7267 43.3831V81.3127H66.1407" stroke="white" stroke-width="10.6211" stroke-linecap="round" stroke-linejoin="round"/>
<path d="M35.7971 142H20.6253C12.2461 142 5.45343 135.208 5.45343 126.828V111.656" stroke="white" stroke-width="10.6211" stroke-linecap="round" stroke-linejoin="round"/>
<path d="M111.656 142H126.828C135.208 142 142 135.208 142 126.828V111.656" stroke="white" stroke-width="10.6211" stroke-linecap="round" stroke-linejoin="round"/>
</svg>
